<svg width="15" height="14" viewBox="0 0 15 14" fill="none" xmlns="http://www.w3.org/2000/svg">
<g id="ic&#226;&#128;&#147;devices" clip-path="url(#clip0_3909_93706)">
<path id="Vector" d="M2.83346 1.75C2.19744 1.75 1.6668 2.28064 1.6668 2.91667V9.33333C1.6668 9.44631 1.75874 9.52105 1.78984 9.625H1.2293C1.13267 9.62363 1.03674 9.64148 0.947079 9.67752C0.857415 9.71355 0.775806 9.76704 0.706994 9.83488C0.638183 9.90273 0.583542 9.98357 0.546247 10.0727C0.508952 10.1619 0.489746 10.2575 0.489746 10.3542C0.489746 10.4508 0.508952 10.5465 0.546247 10.6356C0.583542 10.7248 0.638183 10.8056 0.706994 10.8734C0.775806 10.9413 0.857415 10.9948 0.947079 11.0308C1.03674 11.0668 1.13267 11.0847 1.2293 11.0833H4.58346V11.6667C4.58346 12.3027 5.11411 12.8333 5.75013 12.8333H8.08346C8.50725 12.8333 8.88051 12.5954 9.08493 12.25H12.7501C13.3862 12.25 13.9168 11.7194 13.9168 11.0833V5.25C13.9168 4.61398 13.3862 4.08333 12.7501 4.08333V2.91667C12.7501 2.28064 12.2195 1.75 11.5835 1.75H2.83346ZM3.12513 3.20833H11.2918V4.08333H8.08346C7.44744 4.08333 6.9168 4.61398 6.9168 5.25V6.41667H5.75013C5.11411 6.41667 4.58346 6.94731 4.58346 7.58333V9.04167H3.12513V3.20833ZM8.37513 5.54167H12.4585V10.7917H9.25013V7.58333C9.25013 7.04831 8.87297 6.59157 8.37513 6.45882V5.54167ZM6.0418 7.875H7.7918V11.375H6.0418V7.875Z" fill="url(#paint0_linear_3909_93706)"/>
</g>
<defs>
<linearGradient id="paint0_linear_3909_93706" x1="0.489746" y1="1.75" x2="9.62324" y2="15.6538" gradientUnits="userSpaceOnUse">
<stop stop-color="#2091F6"/>
<stop offset="1" stop-color="#AF5FFF"/>
</linearGradient>
<clipPath id="clip0_3909_93706">
<rect width="14" height="14" fill="white" transform="translate(0.5)"/>
</clipPath>
</defs>
</svg>
